<?xml version="1.0" encoding="UTF-8"?>
<svg version="1.1" xmlns="http://www.w3.org/2000/svg" width="512" height="512">
<path d="M0 0 C2.95169334 2.5054393 5.82049116 5.09412146 8.66699219 7.71801758 C9.26866211 8.2690918 9.87033203 8.82016602 10.49023438 9.38793945 C25.28623156 23.10206204 37.52820034 39.04242891 46.77197266 56.98510742 C47.59086312 58.57061874 48.44181902 60.1394625 49.29589844 61.70629883 C71.47099353 103.56685693 74.09362187 155.39250995 60.49658203 200.31665039 C54.42133682 219.27542033 45.63862426 237.76820568 33.66699219 253.71801758 C33.23032227 254.30583008 32.79365234 254.89364258 32.34375 255.49926758 C23.87134279 266.82020911 14.70390872 277.80869941 3.66699219 286.71801758 C3.1789209 287.11843262 2.69084961 287.51884766 2.18798828 287.93139648 C-6.26027317 294.8449872 -14.94562911 301.1395587 -24.33300781 306.71801758 C-24.90567383 307.05929687 -25.47833984 307.40057617 -26.06835938 307.75219727 C-47.86650823 320.52789303 -72.41908236 327.49066888 -97.33300781 330.71801758 C-98.32558594 330.85079102 -99.31816406 330.98356445 -100.34082031 331.12036133 C-148.72236685 336.52074802 -198.06401824 320.65349823 -235.81005859 290.52709961 C-239.40609718 287.58449412 -242.7705539 284.49867334 -245.96191406 281.12426758 C-247.44227682 279.54109747 -247.44227682 279.54109747 -249.83300781 277.78051758 C-253.46020897 274.78807662 -256.32713995 271.32395796 -259.33300781 267.71801758 C-259.76000977 267.21931152 -260.18701172 266.72060547 -260.62695312 266.20678711 C-292.55317295 228.81862514 -308.49608418 179.75758849 -304.82910156 130.74926758 C-300.68020878 85.13868255 -281.78008218 44.02048103 -249.33300781 11.71801758 C-248.77000977 11.15244141 -248.20701172 10.58686523 -247.62695312 10.00415039 C-186.00566029 -51.33268177 -84.44101333 -58.42005829 0 0 Z M-78.33300781 -12.28198242 C-73.834187 -5.10847589 -73.834187 -5.10847589 -69.09863281 1.90942383 C-62.7338484 11.00669198 -57.62966157 20.54688033 -52.71142578 30.50170898 C-52.18564941 31.5502002 -51.65987305 32.59869141 -51.11816406 33.67895508 C-50.65289307 34.62561035 -50.18762207 35.57226562 -49.70825195 36.54760742 C-48.45717804 39.02779504 -48.45717804 39.02779504 -45.33300781 39.71801758 C-42.91568449 39.02303712 -40.66773725 38.25569485 -38.33300781 37.34301758 C-37.29950195 36.94832275 -37.29950195 36.94832275 -36.24511719 36.5456543 C-27.39585414 33.08041527 -18.86042661 28.90069974 -10.33300781 24.71801758 C-25.08839085 5.55297984 -53.50025329 -6.51383873 -76.33300781 -12.28198242 C-76.99300781 -12.28198242 -77.65300781 -12.28198242 -78.33300781 -12.28198242 Z M-165.84155273 -10.74584961 C-183.26770195 -4.87373405 -217.32661466 6.70523127 -226.33300781 24.71801758 C-217.12936091 29.23238829 -207.91569991 33.68339733 -198.33300781 37.34301758 C-197.33817383 37.73191162 -197.33817383 37.73191162 -196.32324219 38.12866211 C-192.39537003 39.59723315 -192.39537003 39.59723315 -188.33300781 38.71801758 C-186.89434068 36.53107557 -186.89434068 36.53107557 -185.61816406 33.78442383 C-185.10253906 32.7510791 -184.58691406 31.71773437 -184.05566406 30.65307617 C-183.23388672 28.98365967 -183.23388672 28.98365967 -182.39550781 27.28051758 C-176.78544124 16.16985689 -170.55385368 5.84313013 -163.33300781 -4.28198242 C-162.61371094 -5.29276855 -162.61371094 -5.29276855 -161.87988281 -6.32397461 C-160.70012441 -7.97845321 -159.51693755 -9.63048623 -158.33300781 -11.28198242 C-161.16549768 -12.69822736 -162.95025381 -11.66609673 -165.84155273 -10.74584961 Z M-106.33300781 -7.28198242 C-106.33300781 11.85801758 -106.33300781 30.99801758 -106.33300781 50.71801758 C-98.60517049 50.81832239 -98.60517049 50.81832239 -91.15722656 50.09692383 C-90.30966797 49.96608398 -89.46210938 49.83524414 -88.58886719 49.70043945 C-87.74130859 49.56186523 -86.89375 49.42329102 -86.02050781 49.28051758 C-85.15361328 49.14581055 -84.28671875 49.01110352 -83.39355469 48.87231445 C-79.35471226 48.23786028 -75.33324894 47.56755332 -71.33300781 46.71801758 C-75.83335683 34.61444732 -82.88788854 23.19140958 -90.33300781 12.71801758 C-91.00332031 11.77313477 -91.67363281 10.82825195 -92.36425781 9.85473633 C-98.61675581 1.10710139 -98.61675581 1.10710139 -105.33300781 -7.28198242 C-105.66300781 -7.28198242 -105.99300781 -7.28198242 -106.33300781 -7.28198242 Z M-131.33300781 -6.28198242 C-145.54437135 9.01264295 -157.4215992 27.38467178 -165.33300781 46.71801758 C-161.18896548 47.39614179 -157.04253521 48.05841515 -152.89550781 48.71801758 C-151.14850586 49.00418945 -151.14850586 49.00418945 -149.36621094 49.29614258 C-148.22216797 49.47661133 -147.078125 49.65708008 -145.89941406 49.84301758 C-144.8572876 50.0105957 -143.81516113 50.17817383 -142.74145508 50.35083008 C-138.62729991 50.79404255 -134.47096746 50.71801758 -130.33300781 50.71801758 C-130.33300781 31.90801758 -130.33300781 13.09801758 -130.33300781 -6.28198242 C-130.66300781 -6.28198242 -130.99300781 -6.28198242 -131.33300781 -6.28198242 Z M-244.33300781 42.71801758 C-266.85724821 66.14111264 -277.46749792 101.19740873 -280.33300781 132.71801758 C-257.56300781 132.71801758 -234.79300781 132.71801758 -211.33300781 132.71801758 C-210.63175781 127.10801758 -209.93050781 121.49801758 -209.20800781 115.71801758 C-207.35756818 101.53567947 -204.86359973 87.89955108 -200.97998047 74.11450195 C-199.96191493 70.34343351 -199.14870302 66.53748138 -198.33300781 62.71801758 C-199.05061279 62.42161377 -199.76821777 62.12520996 -200.50756836 61.81982422 C-208.08850852 58.67644787 -215.62906593 55.44995806 -223.14550781 52.15551758 C-224.22509766 51.68694336 -225.3046875 51.21836914 -226.41699219 50.7355957 C-230.8771705 48.78033666 -235.26717401 46.84713272 -239.46972656 44.37817383 C-242.0697491 42.55081943 -242.0697491 42.55081943 -244.33300781 42.71801758 Z M-1.39550781 46.21801758 C-13.40016591 52.36843268 -25.72945974 57.90460223 -38.33300781 62.71801758 C-38.17445313 63.35223633 -38.01589844 63.98645508 -37.85253906 64.63989258 C-37.33997751 66.6901388 -36.82987962 68.74100144 -36.32128906 70.79223633 C-35.6120426 73.63437765 -34.87405971 76.46789403 -34.12597656 79.30004883 C-29.48248402 97.06176171 -27.26812019 114.33444997 -25.33300781 132.71801758 C-2.56300781 132.71801758 20.20699219 132.71801758 43.66699219 132.71801758 C42.24678769 118.41308741 42.24678769 118.41308741 39.41699219 104.53051758 C39.20083252 103.69939453 38.98467285 102.86827148 38.76196289 102.01196289 C36.68510726 94.30871657 33.99872157 86.97450881 30.66699219 79.71801758 C30.36921875 79.06881348 30.07144531 78.41960937 29.76464844 77.75073242 C25.16488363 67.87602985 19.76633143 58.73291094 13.66699219 49.71801758 C12.88775391 48.51725586 12.88775391 48.51725586 12.09277344 47.29223633 C10.72528591 45.17837768 10.72528591 45.17837768 8.66699219 42.71801758 C4.7114484 42.71801758 2.02301609 44.42504509 -1.39550781 46.21801758 Z M-175.33300781 69.71801758 C-178.51226716 80.12069434 -181.49878985 90.53485896 -183.58300781 101.21801758 C-183.73350586 101.96075928 -183.88400391 102.70350098 -184.0390625 103.46875 C-185.83780527 113.16680303 -186.39230015 122.84058714 -187.33300781 132.71801758 C-168.52300781 132.71801758 -149.71300781 132.71801758 -130.33300781 132.71801758 C-130.33300781 113.57801758 -130.33300781 94.43801758 -130.33300781 74.71801758 C-139.57300781 73.72801758 -148.81300781 72.73801758 -158.33300781 71.71801758 C-161.96300781 71.05801758 -165.59300781 70.39801758 -169.33300781 69.71801758 C-172.79222563 69.5467497 -172.79222563 69.5467497 -175.33300781 69.71801758 Z M-73.40332031 70.55786133 C-74.54800781 70.73381836 -75.69269531 70.90977539 -76.87207031 71.09106445 C-78.05542969 71.27733398 -79.23878906 71.46360352 -80.45800781 71.65551758 C-82.79333789 72.02268336 -85.12927752 72.38599373 -87.46582031 72.74536133 C-88.49594238 72.90770264 -89.52606445 73.07004395 -90.58740234 73.23730469 C-95.81620737 73.90837216 -101.07952579 74.28022741 -106.33300781 74.71801758 C-106.33300781 93.85801758 -106.33300781 112.99801758 -106.33300781 132.71801758 C-87.52300781 132.71801758 -68.71300781 132.71801758 -49.33300781 132.71801758 C-50.12701478 119.17400301 -50.12701478 119.17400301 -52.08300781 105.90551758 C-52.25493652 104.98899414 -52.42686523 104.0724707 -52.60400391 103.12817383 C-54.79265225 91.82891197 -57.57811339 80.60376656 -61.33300781 69.71801758 C-65.46211687 69.6353123 -69.3257901 69.91551068 -73.40332031 70.55786133 Z M-280.33300781 156.71801758 C-278.78796429 170.69281109 -278.78796429 170.69281109 -276.08300781 184.34301758 C-275.86684814 185.22562256 -275.65068848 186.10822754 -275.42797852 187.01757812 C-269.77946753 209.19478009 -258.34679102 229.75162885 -244.33300781 247.71801758 C-243.3984375 247.23333008 -242.46386719 246.74864258 -241.50097656 246.24926758 C-227.54091766 239.09358891 -213.1874295 232.79188746 -198.33300781 227.71801758 C-199.32727344 222.20436273 -200.55713325 216.83092624 -202.05957031 211.43774414 C-204.32720146 203.23807189 -206.12143737 195.04859369 -207.52050781 186.65551758 C-207.67503418 185.73625488 -207.82956055 184.81699219 -207.98876953 183.86987305 C-209.43353273 174.83578918 -210.31940698 165.84042503 -211.33300781 156.71801758 C-234.10300781 156.71801758 -256.87300781 156.71801758 -280.33300781 156.71801758 Z M-187.33300781 156.71801758 C-185.63945875 175.34705729 -183.1658014 192.54985822 -178.27050781 210.40551758 C-178.02526367 211.32147705 -177.78001953 212.23743652 -177.52734375 213.18115234 C-177.28661133 214.02218506 -177.04587891 214.86321777 -176.79785156 215.72973633 C-176.58765381 216.47698975 -176.37745605 217.22424316 -176.16088867 217.99414062 C-175.75108765 218.84745972 -175.75108765 218.84745972 -175.33300781 219.71801758 C-172.0515539 220.81183555 -170.75921165 220.6212549 -167.42285156 220.01098633 C-166.43091797 219.83631836 -165.43898437 219.66165039 -164.41699219 219.48168945 C-163.37865234 219.29155273 -162.3403125 219.10141602 -161.27050781 218.90551758 C-150.96692295 217.02905932 -140.7925667 215.88019079 -130.33300781 214.71801758 C-130.33300781 195.57801758 -130.33300781 176.43801758 -130.33300781 156.71801758 C-149.14300781 156.71801758 -167.95300781 156.71801758 -187.33300781 156.71801758 Z M-106.33300781 156.71801758 C-106.33300781 175.85801758 -106.33300781 194.99801758 -106.33300781 214.71801758 C-96.38759295 215.94647877 -96.38759295 215.94647877 -86.44165039 217.1706543 C-78.04762585 218.21370193 -69.68521053 219.37290289 -61.33300781 220.71801758 C-55.05588511 199.97458003 -49.33300781 178.5525742 -49.33300781 156.71801758 C-68.14300781 156.71801758 -86.95300781 156.71801758 -106.33300781 156.71801758 Z M-25.33300781 156.71801758 C-26.32300781 165.29801758 -27.31300781 173.87801758 -28.33300781 182.71801758 C-29.05328682 187.12566042 -29.77902452 191.42825209 -30.70800781 195.78051758 C-30.91643311 196.79581543 -31.1248584 197.81111328 -31.33959961 198.85717773 C-32.96850873 206.56179011 -35.02557895 214.08468787 -37.41503906 221.58520508 C-38.47360503 224.65375402 -38.47360503 224.65375402 -38.33300781 227.71801758 C-37.71071289 227.93828613 -37.08841797 228.15855469 -36.44726562 228.38549805 C-24.09051691 232.7953836 -12.12071215 237.42217622 -0.58007812 243.70581055 C0.18723633 244.11460449 0.95455078 244.52339844 1.74511719 244.94458008 C2.40930664 245.31147949 3.07349609 245.67837891 3.7578125 246.05639648 C6.14615044 246.88406858 7.33452991 246.62856082 9.66699219 245.71801758 C12.39205121 242.68152323 14.46610426 239.14709958 16.66699219 235.71801758 C17.31023437 234.74219727 17.95347656 233.76637695 18.61621094 232.76098633 C29.35665264 215.98564025 36.50812184 197.78214704 40.97949219 178.40551758 C41.13901367 177.72561768 41.29853516 177.04571777 41.46289062 176.34521484 C42.88838403 169.72988699 43.13391442 163.64802851 43.66699219 156.71801758 C20.89699219 156.71801758 -1.87300781 156.71801758 -25.33300781 156.71801758 Z M-106.33300781 238.71801758 C-106.33300781 257.85801758 -106.33300781 276.99801758 -106.33300781 296.71801758 C-91.99644997 282.38145974 -78.31297293 262.91292165 -71.33300781 243.71801758 C-82.83274745 240.05900951 -94.23066572 239.47441396 -106.33300781 238.71801758 Z M-143.39550781 239.59301758 C-144.51300415 239.72619385 -144.51300415 239.72619385 -145.65307617 239.86206055 C-151.91255442 240.62693612 -158.12758553 241.5941068 -164.33300781 242.71801758 C-163.72009282 247.56476078 -161.67643832 251.35322684 -159.39550781 255.59301758 C-158.99581787 256.33970703 -158.59612793 257.08639648 -158.18432617 257.85571289 C-150.64936023 271.68225106 -141.48720624 285.56381915 -130.33300781 296.71801758 C-130.33300781 277.57801758 -130.33300781 258.43801758 -130.33300781 238.71801758 C-134.76783227 238.71801758 -139.00787943 239.0606788 -143.39550781 239.59301758 Z M-47.33300781 249.71801758 C-47.7088501 250.44782837 -47.7088501 250.44782837 -48.09228516 251.19238281 C-57.07989248 268.5908417 -66.41152415 285.14756269 -78.33300781 300.71801758 C-74.16374307 302.10777249 -71.20334634 300.65451811 -67.20800781 299.28051758 C-66.40830566 299.00755859 -65.60860352 298.73459961 -64.78466797 298.45336914 C-44.75609461 291.41875124 -25.36648792 280.90728504 -10.33300781 265.71801758 C-16.90768929 261.26006282 -23.69486111 258.34070791 -31.08300781 255.46801758 C-32.20578125 255.02200195 -33.32855469 254.57598633 -34.48535156 254.11645508 C-40.80001225 251.57793627 -40.80001225 251.57793627 -47.33300781 249.71801758 Z M-192.265625 250.2277832 C-193.43593262 250.67154297 -193.43593262 250.67154297 -194.62988281 251.12426758 C-195.50040283 251.45297852 -196.37092285 251.78168945 -197.26782227 252.12036133 C-198.1968335 252.48258789 -199.12584473 252.84481445 -200.08300781 253.21801758 C-201.02426514 253.58024414 -201.96552246 253.9424707 -202.93530273 254.31567383 C-210.65419895 257.33871617 -218.03334923 260.79215078 -225.33300781 264.71801758 C-219.30224265 279.67701049 -193.52481463 289.30783666 -179.33300781 295.48364258 C-172.46517804 298.37914771 -165.74044903 300.70711972 -158.33300781 301.71801758 C-162.83182862 294.54451105 -162.83182862 294.54451105 -167.56738281 287.52661133 C-173.93748593 278.42363085 -179.06229804 268.86481846 -184.04248047 258.93432617 C-184.57147949 257.88583496 -185.10047852 256.83734375 -185.64550781 255.75708008 C-186.11601562 254.8104248 -186.58652344 253.86376953 -187.07128906 252.88842773 C-188.58195391 250.2897802 -189.26472061 249.43623591 -192.265625 250.2277832 Z " fill="#20A2DC" transform="translate(374.3330078125,111.281982421875)"/>
</svg>
